<?xml version="1.0" encoding="UTF-8" standalone="no"?>
<!DOCTYPE svg PUBLIC "-//W3C//DTD SVG 1.1//EN" "http://www.w3.org/Graphics/SVG/1.1/DTD/svg11.dtd">
<svg width="456" height="456" viewBox="0 0 456 456" version="1.1" xmlns="http://www.w3.org/2000/svg" xmlns:xlink="http://www.w3.org/1999/xlink" xml:space="preserve" xmlns:serif="http://www.serif.com/" style="fill-rule:evenodd;clip-rule:evenodd;stroke-linejoin:round;stroke-miterlimit:2;">
  <path d="M0 0 C211.2 0 422.4 0 640 0 C640 211.2 640 422.4 640 640 C428.8 640 217.6 640 0 640 C0 428.8 0 217.6 0 0 Z " fill="#121212" transform="translate(0,0)"/>
  <path d="M0 0 C0.98742187 0.69480469 1.97484375 1.38960937 2.9921875 2.10546875 C32.08779481 23.29046665 53.77181422 50.42653919 69 83 C69.57621094 84.18529297 69.57621094 84.18529297 70.1640625 85.39453125 C75.56992581 96.88748454 79.70623711 109.51397591 82.51464844 121.87158203 C82.84701201 123.32909993 83.19480593 124.78316091 83.55566406 126.23388672 C87.21889219 141.38576684 87.40203918 156.49580939 87.4375 172 C87.44358276 173.01465332 87.44966553 174.02930664 87.45593262 175.07470703 C87.5043821 187.44380943 86.77029132 198.9303244 84 211 C83.5587024 213.24925825 83.1206683 215.49916205 82.6875 217.75 C71.25573027 269.22197841 40.7898048 316.69568278 -3.84375 345.5234375 C-20.92490931 356.20585531 -39.49420728 364.95383785 -59 370 C-60.51207031 370.41572266 -60.51207031 370.41572266 -62.0546875 370.83984375 C-75.55497685 374.43872725 -88.68998137 375.35012298 -102.58447266 375.31567383 C-105.23251864 375.31252081 -107.87943532 375.33604215 -110.52734375 375.36132812 C-125.68608122 375.4184129 -140.192191 373.42946833 -154.8125 369.375 C-156.17906738 368.99649902 -156.17906738 368.99649902 -157.57324219 368.61035156 C-206.68215604 354.39327874 -247.2652734 319.19455543 -272 275 C-277.4714526 264.99837012 -282.07038649 254.70344324 -286 244 C-286.38285156 242.96818604 -286.38285156 242.96818604 -286.7734375 241.91552734 C-299.12128483 208.2111 -300.74867381 171.37849605 -296 136 C-295.87882813 134.96101562 -295.75765625 133.92203125 -295.6328125 132.8515625 C-289.53067245 88.39311357 -262.92822506 41.36052462 -228 13 C-226.93592521 12.10058295 -225.87215149 11.20080966 -224.80859375 10.30078125 C-215.45079505 2.49095604 -205.55276518 -3.9271823 -195 -10 C-194.40445313 -10.34933594 -193.80890625 -10.69867188 -193.1953125 -11.05859375 C-185.11494571 -15.78162504 -176.81095101 -19.26829611 -167.99121094 -22.30908203 C-166.13468294 -22.9532672 -164.28943608 -23.62971309 -162.4453125 -24.30859375 C-108.6124027 -42.88963036 -46.34296559 -32.69560103 0 0 Z " fill="#121212" transform="translate(432,143)"/>
  <path d="M0 0 C1.05880371 0.00829834 2.11760742 0.01659668 3.20849609 0.02514648 C11.23884755 0.19848561 17.7984876 1.12381974 25.1875 4.4375 C26.28449219 4.90027344 27.38148438 5.36304688 28.51171875 5.83984375 C52.48714819 16.82075152 71.23356912 37.20123161 86.1875 58.4375 C86.75855469 59.23881348 87.32960938 60.04012695 87.91796875 60.86572266 C89.65261898 63.31404935 91.36261242 65.77743625 93.0625 68.25 C93.59343262 69.00925781 94.12436523 69.76851563 94.67138672 70.55078125 C95.14850098 71.26234375 95.62561523 71.97390625 96.1171875 72.70703125 C96.75503174 73.64446167 96.75503174 73.64446167 97.40576172 74.60083008 C98.41272408 76.96665701 98.06599761 78.06126591 97.1875 80.4375 C88.88733171 95.80221283 76.85046942 109.56310199 65.1875 122.4375 C64.44242188 123.26765625 63.69734375 124.0978125 62.9296875 124.953125 C52.03080353 136.47361832 38.73166808 145.26327105 24.1875 151.4375 C23.13433594 151.89125 22.08117187 152.345 20.99609375 152.8125 C5.54580439 158.49536505 -11.91135375 156.35898604 -26.71484375 149.90234375 C-47.04282829 140.28948851 -63.11451265 125.01456341 -76.8125 107.4375 C-77.61300781 106.43074219 -78.41351563 105.42398438 -79.23828125 104.38671875 C-83.85088693 98.54384507 -88.25969518 92.55579354 -92.5 86.4375 C-92.94657959 85.81456055 -93.39315918 85.19162109 -93.85327148 84.54980469 C-96.8709347 80.10145172 -96.8709347 80.10145172 -96.59887695 77.01025391 C-95.74660118 74.2219018 -94.64838275 72.33835126 -92.96875 69.9609375 C-92.38633545 69.13062012 -91.8039209 68.30030273 -91.20385742 67.44482422 C-90.57970947 66.57615723 -89.95556152 65.70749023 -89.3125 64.8125 C-88.67610596 63.9167627 -88.03971191 63.02102539 -87.3840332 62.09814453 C-82.77079625 55.65375702 -78.02624489 49.41158269 -72.8125 43.4375 C-72.11125 42.62667969 -71.41 41.81585938 -70.6875 40.98046875 C-68.43519397 38.42651459 -66.13860598 35.92441394 -63.8125 33.4375 C-63.37067383 32.9616748 -62.92884766 32.48584961 -62.47363281 31.99560547 C-52.76428478 21.62072453 -42.25121874 13.4497474 -29.5625 7 C-28.93762695 6.68192383 -28.31275391 6.36384766 -27.66894531 6.03613281 C-18.5647469 1.62413473 -10.10734052 -0.10241202 0 0 Z " fill="#397F3C" transform="translate(325.8125,236.5625)"/>
  <path d="M0 0 C0.95132813 -0.01611328 1.90265625 -0.03222656 2.8828125 -0.04882812 C12.3389254 -0.05530491 19.83458043 2.80848897 28.1875 7 C29.2228186 7.51892822 29.2228186 7.51892822 30.27905273 8.04833984 C36.22103682 11.12319329 41.24888222 14.8691277 46.25 19.3125 C46.88164062 19.82554687 47.51328125 20.33859375 48.1640625 20.8671875 C52.7280685 24.58675186 56.48249113 28.80199635 60.25 33.3125 C61.49910156 34.79943359 61.49910156 34.79943359 62.7734375 36.31640625 C66.64881191 40.94247052 70.49361822 45.58895786 74.25 50.3125 C70.79663919 60.38329567 61.38910697 68.63671191 54.25 76.3125 C53.55390625 77.07433594 52.8578125 77.83617187 52.140625 78.62109375 C39.3868409 92.04980438 22.21869964 102.35538189 3.5234375 103.55078125 C-19.61207527 103.9912369 -35.39028668 92.52463147 -51.75 77.3125 C-52.40613281 76.72210938 -53.06226563 76.13171875 -53.73828125 75.5234375 C-58.41927323 71.12349887 -62.38188689 66.18981704 -66.3125 61.125 C-66.86212402 60.435271 -67.41174805 59.74554199 -67.97802734 59.03491211 C-71.73342874 54.07477794 -71.73342874 54.07477794 -71.80859375 50.6171875 C-67.93869459 42.19194578 -60.02537432 35.02615443 -53.75 28.3125 C-53.31204102 27.83522461 -52.87408203 27.35794922 -52.42285156 26.86621094 C-42.0121665 15.58858104 -30.58869506 6.81797837 -15.75 2.3125 C-14.69425781 1.78076172 -14.69425781 1.78076172 -13.6171875 1.23828125 C-9.12697085 -0.21155709 -4.68767545 -0.01562558 0 0 Z " fill="#72B875" transform="translate(325.75,262.6875)"/>
  <path d="M0 0 C1.19713623 0.2616394 1.19713623 0.2616394 2.41845703 0.52856445 C37.93010717 8.62164085 69.29367922 26.51205136 95.75 51.3125 C96.26546387 51.78864746 96.78092773 52.26479492 97.31201172 52.75537109 C114.78099648 69.00642959 128.58563448 88.76147184 138.75 110.3125 C139.28109375 111.38242188 139.8121875 112.45234375 140.359375 113.5546875 C148.68296874 130.51680917 153.85334195 147.91006526 157.22998047 166.47705078 C157.69855108 169.03197052 158.20648914 171.57548779 158.72265625 174.12109375 C164.44479698 204.28745462 161.43767869 238.05945691 152.75 267.3125 C152.42 268.46492188 152.09 269.61734375 151.75 270.8046875 C148.64834044 281.29702023 144.5717925 290.93977813 139.59375 300.67578125 C138.38845308 303.03405311 137.23243589 305.40011704 136.09375 307.79296875 C114.06489457 353.77300898 72.28421699 388.55807007 24.9921875 406.19140625 C-23.49192516 422.9563946 -75.50660576 419.48377983 -121.53710938 397.20556641 C-130.87902434 392.56085026 -139.77537213 387.41837164 -148.25 381.3125 C-149.27222656 380.57644531 -150.29445313 379.84039062 -151.34765625 379.08203125 C-174.8128121 361.78266612 -194.02164633 339.69657313 -208.25 314.3125 C-208.78367188 313.37059814 -208.78367188 313.37059814 -209.328125 312.40966797 C-214.09251477 303.95330768 -217.9902627 295.4773768 -221.25 286.3125 C-221.76814439 284.93648447 -222.28860322 283.5613357 -222.8125 282.1875 C-223.15667969 281.25550781 -223.15667969 281.25550781 -223.5078125 280.3046875 C-224.05113946 278.84628355 -224.61076164 277.39392205 -225.1796875 275.9453125 C-238.70699261 240.60653868 -239.6917163 200.08948809 -232.25 163.3125 C-232.08983398 162.49910156 -231.92966797 161.68570313 -231.76464844 160.84765625 C-223.65875746 120.57635077 -203.27517921 84.96436464 -175.25 55.3125 C-174.44691406 54.45527344 -173.64382812 53.59804687 -172.81640625 52.71484375 C-157.69576676 37.04797426 -136.77753381 21.09341282 -116.25 13.3125 C-114.93 13.3125 -113.61 13.3125 -112.25 13.3125 C-112.25 12.6525 -112.25 11.9925 -112.25 11.3125 C-76.28317992 -1.59033835 -38.05304655 -8.4415549 0 0 Z M-98.25 12.3125 C-99.48363281 12.71726562 -100.71726562 13.12203125 -101.98828125 13.5390625 C-119.45187087 19.42067394 -135.75428776 29.01519652 -150.25 40.3125 C-151.19746094 41.04984375 -152.14492187 41.7871875 -153.12109375 42.546875 C-162.8701961 50.34615688 -172.34501282 58.61987049 -180.25 68.3125 C-181.12732436 69.34268627 -182.00495643 70.37261053 -182.8828125 71.40234375 C-214.58737083 109.18484123 -230.47064553 156.28694581 -230.4375 205.3125 C-230.43669434 206.57054443 -230.43588867 207.82858887 -230.43505859 209.12475586 C-230.36485937 219.94988986 -229.62224904 230.58009466 -228.25 241.3125 C-228.12882813 242.37339844 -228.00765625 243.43429687 -227.8828125 244.52734375 C-222.3428508 284.83339164 -200.21238079 324.35994991 -172.25 353.3125 C-171.33039807 354.2952632 -170.41113063 355.2783395 -169.4921875 356.26171875 C-153.78033196 372.80179613 -134.61113325 384.69838341 -114.12744141 394.41894531 C-112.42483444 395.22928881 -110.73319954 396.06258646 -109.04296875 396.8984375 C-101.33922783 400.4890837 -93.43514648 402.82336504 -85.25 405.0625 C-84.18217285 405.35648682 -83.1143457 405.65047363 -82.01416016 405.95336914 C-68.22113983 409.58726309 -54.86056199 410.66336813 -40.66552734 410.62817383 C-38.01748136 410.62502081 -35.37056468 410.64854215 -32.72265625 410.67382812 C-18.19517229 410.72810508 -4.10753415 409.12287599 9.875 405 C10.60960449 404.78835205 11.34420898 404.5767041 12.10107422 404.35864258 C25.65816493 400.3573067 38.29298054 394.9712166 50.75 388.3125 C51.36649414 387.98491699 51.98298828 387.65733398 52.61816406 387.31982422 C61.23697922 382.69717269 69.08525929 377.38743873 76.75 371.3125 C77.6059375 370.66152344 78.461875 370.01054687 79.34375 369.33984375 C104.13805469 349.95995801 122.5377535 324.5714558 135.84130859 296.24072266 C136.43633875 294.97808209 137.04051885 293.71970358 137.65478516 292.46630859 C146.1558303 275.10749869 150.84747834 256.21892081 153.2421875 237.1015625 C153.75 233.3125 153.75 233.3125 154.75 230.3125 C154.85550817 228.89046427 154.9084332 227.46415362 154.92700195 226.03833008 C154.93964584 225.17421005 154.95228973 224.31009003 154.96531677 223.41978455 C154.97289505 222.48332596 154.98047333 221.54686737 154.98828125 220.58203125 C154.9980751 219.60750504 155.00786896 218.63297882 155.01795959 217.62892151 C155.44564637 188.22516011 155.44564637 188.22516011 150.75 159.3125 C150.51974121 158.39984375 150.28948242 157.4871875 150.05224609 156.546875 C148.47152988 150.4063597 146.68371306 144.35031422 144.75 138.3125 C144.54262207 137.65072754 144.33524414 136.98895508 144.12158203 136.30712891 C141.20668134 127.11099341 137.16680258 118.62811604 132.69482422 110.11230469 C131.87022271 108.54151338 131.06075198 106.96279761 130.25390625 105.3828125 C122.67207674 90.90645813 112.93767113 77.72217655 101.9140625 65.703125 C100.082024 63.67928463 98.35415564 61.61045663 96.625 59.5 C82.69492007 43.61650656 64.21210534 32.15673794 45.75 22.3125 C44.60015625 21.68472656 43.4503125 21.05695313 42.265625 20.41015625 C25.66545495 11.67020497 8.0808017 7.70399988 -10.25 4.3125 C-11.20302002 4.12486084 -12.15604004 3.93722168 -13.13793945 3.74389648 C-21.00220847 2.28508014 -28.69649753 1.88874511 -36.6875 1.875 C-37.3500882 1.87360016 -38.01267639 1.87220032 -38.69534302 1.87075806 C-58.98896229 1.9055162 -79.17588621 5.32642059 -98.25 12.3125 Z " fill="#CECECE" transform="translate(364.25,107.6875)"/>
  <path d="M0 0 C0.80824219 -0.020625 1.61648438 -0.04125 2.44921875 -0.0625 C8.4133816 -0.10067064 13.23253275 1.02949245 18.75 3.25 C19.87664062 3.70117188 21.00328125 4.15234375 22.1640625 4.6171875 C29.23950351 7.93971819 35.12552156 11.83092806 41.0625 16.9375 C41.71492676 17.49614746 42.36735352 18.05479492 43.03955078 18.63037109 C48.01525269 23.08119307 48.01525269 23.08119307 48.75 27.25 C39.63808164 35.58472532 30.15806784 43.32693433 18.75 48.25 C17.97527344 48.60191406 17.20054687 48.95382812 16.40234375 49.31640625 C4.33599895 53.56361745 -10.15943863 52.63183037 -21.61328125 47.21484375 C-31.81827223 41.91879113 -40.51527368 34.72136693 -48.25 26.25 C-43.33878129 14.48962221 -27.72821985 7.14018268 -16.7578125 2.1953125 C-11.21117984 0.10452573 -5.86034026 0.03668445 0 0 Z " fill="#BEE0BF" transform="translate(326.25,288.75)"/>
</svg>
